<svg width="110" height="23" viewBox="0 0 110 23" fill="none" xmlns="http://www.w3.org/2000/svg">
<path d="M2.67969 5.32031L2.73828 6.72656C3.66797 5.63281 4.92188 5.08594 6.5 5.08594C8.27344 5.08594 9.48047 5.76562 10.1211 7.125C10.543 6.51562 11.0898 6.02344 11.7617 5.64844C12.4414 5.27344 13.2422 5.08594 14.1641 5.08594C16.9453 5.08594 18.3594 6.55859 18.4062 9.50391V18H16.2383V9.63281C16.2383 8.72656 16.0312 8.05078 15.6172 7.60547C15.2031 7.15234 14.5078 6.92578 13.5312 6.92578C12.7266 6.92578 12.0586 7.16797 11.5273 7.65234C10.9961 8.12891 10.6875 8.77344 10.6016 9.58594V18H8.42188V9.69141C8.42188 7.84766 7.51953 6.92578 5.71484 6.92578C4.29297 6.92578 3.32031 7.53125 2.79688 8.74219V18H0.628906V5.32031H2.67969ZM29.5156 18C29.3906 17.75 29.2891 17.3047 29.2109 16.6641C28.2031 17.7109 27 18.2344 25.6016 18.2344C24.3516 18.2344 23.3242 17.8828 22.5195 17.1797C21.7227 16.4688 21.3242 15.5703 21.3242 14.4844C21.3242 13.1641 21.8242 12.1406 22.8242 11.4141C23.832 10.6797 25.2461 10.3125 27.0664 10.3125H29.1758V9.31641C29.1758 8.55859 28.9492 7.95703 28.4961 7.51172C28.043 7.05859 27.375 6.83203 26.4922 6.83203C25.7188 6.83203 25.0703 7.02734 24.5469 7.41797C24.0234 7.80859 23.7617 8.28125 23.7617 8.83594H21.582C21.582 8.20312 21.8047 7.59375 22.25 7.00781C22.7031 6.41406 23.3125 5.94531 24.0781 5.60156C24.8516 5.25781 25.6992 5.08594 26.6211 5.08594C28.082 5.08594 29.2266 5.45312 30.0547 6.1875C30.8828 6.91406 31.3125 7.91797 31.3438 9.19922V15.0352C31.3438 16.1992 31.4922 17.125 31.7891 17.8125V18H29.5156ZM25.918 16.3477C26.5977 16.3477 27.2422 16.1719 27.8516 15.8203C28.4609 15.4688 28.9023 15.0117 29.1758 14.4492V11.8477H27.4766C24.8203 11.8477 23.4922 12.625 23.4922 14.1797C23.4922 14.8594 23.7188 15.3906 24.1719 15.7734C24.625 16.1562 25.207 16.3477 25.918 16.3477ZM37.0977 18H34.9297V5.32031H37.0977V18ZM34.7539 1.95703C34.7539 1.60547 34.8594 1.30859 35.0703 1.06641C35.2891 0.824219 35.6094 0.703125 36.0312 0.703125C36.4531 0.703125 36.7734 0.824219 36.9922 1.06641C37.2109 1.30859 37.3203 1.60547 37.3203 1.95703C37.3203 2.30859 37.2109 2.60156 36.9922 2.83594C36.7734 3.07031 36.4531 3.1875 36.0312 3.1875C35.6094 3.1875 35.2891 3.07031 35.0703 2.83594C34.8594 2.60156 34.7539 2.30859 34.7539 1.95703ZM42.6289 5.32031L42.6992 6.91406C43.668 5.69531 44.9336 5.08594 46.4961 5.08594C49.1758 5.08594 50.5273 6.59766 50.5508 9.62109V18H48.3828V9.60938C48.375 8.69531 48.1641 8.01953 47.75 7.58203C47.3438 7.14453 46.707 6.92578 45.8398 6.92578C45.1367 6.92578 44.5195 7.11328 43.9883 7.48828C43.457 7.86328 43.043 8.35547 42.7461 8.96484V18H40.5781V5.32031H42.6289ZM70.4844 11.8008C70.4844 13.7305 70.043 15.2852 69.1602 16.4648C68.2773 17.6445 67.082 18.2344 65.5742 18.2344C64.0352 18.2344 62.8242 17.7461 61.9414 16.7695V22.875H59.7734V5.32031H61.7539L61.8594 6.72656C62.7422 5.63281 63.9688 5.08594 65.5391 5.08594C67.0625 5.08594 68.2656 5.66016 69.1484 6.80859C70.0391 7.95703 70.4844 9.55469 70.4844 11.6016V11.8008ZM68.3164 11.5547C68.3164 10.125 68.0117 8.99609 67.4023 8.16797C66.793 7.33984 65.957 6.92578 64.8945 6.92578C63.582 6.92578 62.5977 7.50781 61.9414 8.67188V14.7305C62.5898 15.8867 63.582 16.4648 64.918 16.4648C65.957 16.4648 66.7812 16.0547 67.3906 15.2344C68.0078 14.4062 68.3164 13.1797 68.3164 11.5547ZM81.0781 18C80.9531 17.75 80.8516 17.3047 80.7734 16.6641C79.7656 17.7109 78.5625 18.2344 77.1641 18.2344C75.9141 18.2344 74.8867 17.8828 74.082 17.1797C73.2852 16.4688 72.8867 15.5703 72.8867 14.4844C72.8867 13.1641 73.3867 12.1406 74.3867 11.4141C75.3945 10.6797 76.8086 10.3125 78.6289 10.3125H80.7383V9.31641C80.7383 8.55859 80.5117 7.95703 80.0586 7.51172C79.6055 7.05859 78.9375 6.83203 78.0547 6.83203C77.2812 6.83203 76.6328 7.02734 76.1094 7.41797C75.5859 7.80859 75.3242 8.28125 75.3242 8.83594H73.1445C73.1445 8.20312 73.3672 7.59375 73.8125 7.00781C74.2656 6.41406 74.875 5.94531 75.6406 5.60156C76.4141 5.25781 77.2617 5.08594 78.1836 5.08594C79.6445 5.08594 80.7891 5.45312 81.6172 6.1875C82.4453 6.91406 82.875 7.91797 82.9062 9.19922V15.0352C82.9062 16.1992 83.0547 17.125 83.3516 17.8125V18H81.0781ZM77.4805 16.3477C78.1602 16.3477 78.8047 16.1719 79.4141 15.8203C80.0234 15.4688 80.4648 15.0117 80.7383 14.4492V11.8477H79.0391C76.3828 11.8477 75.0547 12.625 75.0547 14.1797C75.0547 14.8594 75.2812 15.3906 75.7344 15.7734C76.1875 16.1562 76.7695 16.3477 77.4805 16.3477ZM85.7891 11.5547C85.7891 9.57812 86.2461 8.00781 87.1602 6.84375C88.0742 5.67188 89.2852 5.08594 90.793 5.08594C92.3398 5.08594 93.5469 5.63281 94.4141 6.72656L94.5195 5.32031H96.5V17.6953C96.5 19.3359 96.0117 20.6289 95.0352 21.5742C94.0664 22.5195 92.7617 22.9922 91.1211 22.9922C90.207 22.9922 89.3125 22.7969 88.4375 22.4062C87.5625 22.0156 86.8945 21.4805 86.4336 20.8008L87.5586 19.5C88.4883 20.6484 89.625 21.2227 90.9688 21.2227C92.0234 21.2227 92.8438 20.9258 93.4297 20.332C94.0234 19.7383 94.3203 18.9023 94.3203 17.8242V16.7344C93.4531 17.7344 92.2695 18.2344 90.7695 18.2344C89.2852 18.2344 88.082 17.6367 87.1602 16.4414C86.2461 15.2461 85.7891 13.6172 85.7891 11.5547ZM87.9688 11.8008C87.9688 13.2305 88.2617 14.3555 88.8477 15.1758C89.4336 15.9883 90.2539 16.3945 91.3086 16.3945C92.6758 16.3945 93.6797 15.7734 94.3203 14.5312V8.74219C93.6562 7.53125 92.6602 6.92578 91.332 6.92578C90.2773 6.92578 89.4531 7.33594 88.8594 8.15625C88.2656 8.97656 87.9688 10.1914 87.9688 11.8008ZM105.043 18.2344C103.324 18.2344 101.926 17.6719 100.848 16.5469C99.7695 15.4141 99.2305 13.9023 99.2305 12.0117V11.6133C99.2305 10.3555 99.4688 9.23438 99.9453 8.25C100.43 7.25781 101.102 6.48438 101.961 5.92969C102.828 5.36719 103.766 5.08594 104.773 5.08594C106.422 5.08594 107.703 5.62891 108.617 6.71484C109.531 7.80078 109.988 9.35547 109.988 11.3789V12.2812H101.398C101.43 13.5312 101.793 14.543 102.488 15.3164C103.191 16.082 104.082 16.4648 105.16 16.4648C105.926 16.4648 106.574 16.3086 107.105 15.9961C107.637 15.6836 108.102 15.2695 108.5 14.7539L109.824 15.7852C108.762 17.418 107.168 18.2344 105.043 18.2344ZM104.773 6.86719C103.898 6.86719 103.164 7.1875 102.57 7.82812C101.977 8.46094 101.609 9.35156 101.469 10.5H107.82V10.3359C107.758 9.23438 107.461 8.38281 106.93 7.78125C106.398 7.17188 105.68 6.86719 104.773 6.86719Z" fill="black"/>
</svg>
