<svg width="88" height="19" viewBox="0 0 88 19" fill="none" xmlns="http://www.w3.org/2000/svg">
<path d="M10.5625 2.78906H2.33594V18H0.0742188V0.9375H10.5625V2.78906ZM20.5586 5.32031V18H18.3789V7.11328H14.0664L13.8086 11.8594C13.668 14.0391 13.3008 15.5977 12.707 16.5352C12.1211 17.4727 11.1875 17.9609 9.90625 18H9.03906V16.0898L9.66016 16.043C10.3633 15.9648 10.8672 15.5586 11.1719 14.8242C11.4766 14.0898 11.6719 12.7305 11.7578 10.7461L11.9922 5.32031H20.5586ZM31.8672 18C31.7422 17.75 31.6406 17.3047 31.5625 16.6641C30.5547 17.7109 29.3516 18.2344 27.9531 18.2344C26.7031 18.2344 25.6758 17.8828 24.8711 17.1797C24.0742 16.4688 23.6758 15.5703 23.6758 14.4844C23.6758 13.1641 24.1758 12.1406 25.1758 11.4141C26.1836 10.6797 27.5977 10.3125 29.418 10.3125H31.5273V9.31641C31.5273 8.55859 31.3008 7.95703 30.8477 7.51172C30.3945 7.05859 29.7266 6.83203 28.8438 6.83203C28.0703 6.83203 27.4219 7.02734 26.8984 7.41797C26.375 7.80859 26.1133 8.28125 26.1133 8.83594H23.9336C23.9336 8.20312 24.1562 7.59375 24.6016 7.00781C25.0547 6.41406 25.6641 5.94531 26.4297 5.60156C27.2031 5.25781 28.0508 5.08594 28.9727 5.08594C30.4336 5.08594 31.5781 5.45312 32.4062 6.1875C33.2344 6.91406 33.6641 7.91797 33.6953 9.19922V15.0352C33.6953 16.1992 33.8438 17.125 34.1406 17.8125V18H31.8672ZM28.2695 16.3477C28.9492 16.3477 29.5938 16.1719 30.2031 15.8203C30.8125 15.4688 31.2539 15.0117 31.5273 14.4492V11.8477H29.8281C27.1719 11.8477 25.8438 12.625 25.8438 14.1797C25.8438 14.8594 26.0703 15.3906 26.5234 15.7734C26.9766 16.1562 27.5586 16.3477 28.2695 16.3477ZM37.293 18V5.32031H42.2383C43.9258 5.32031 45.2188 5.61719 46.1172 6.21094C47.0234 6.79688 47.4766 7.66016 47.4766 8.80078C47.4766 9.38672 47.3008 9.91797 46.9492 10.3945C46.5977 10.8633 46.0781 11.2227 45.3906 11.4727C46.1562 11.6523 46.7695 12.0039 47.2305 12.5273C47.6992 13.0508 47.9336 13.6758 47.9336 14.4023C47.9336 15.5664 47.5039 16.457 46.6445 17.0742C45.793 17.6914 44.5859 18 43.0234 18H37.293ZM39.4609 12.4336V16.2539H43.0469C43.9531 16.2539 44.6289 16.0859 45.0742 15.75C45.5273 15.4141 45.7539 14.9414 45.7539 14.332C45.7539 13.0664 44.8242 12.4336 42.9648 12.4336H39.4609ZM39.4609 10.6992H42.2617C44.293 10.6992 45.3086 10.1055 45.3086 8.91797C45.3086 7.73047 44.3477 7.11719 42.4258 7.07812H39.4609V10.6992ZM61.1641 18H58.9961V12.5859H53.1719V18H50.9922V5.32031H53.1719V10.8164H58.9961V5.32031H61.1641V18ZM72.4844 18C72.3594 17.75 72.2578 17.3047 72.1797 16.6641C71.1719 17.7109 69.9688 18.2344 68.5703 18.2344C67.3203 18.2344 66.293 17.8828 65.4883 17.1797C64.6914 16.4688 64.293 15.5703 64.293 14.4844C64.293 13.1641 64.793 12.1406 65.793 11.4141C66.8008 10.6797 68.2148 10.3125 70.0352 10.3125H72.1445V9.31641C72.1445 8.55859 71.918 7.95703 71.4648 7.51172C71.0117 7.05859 70.3438 6.83203 69.4609 6.83203C68.6875 6.83203 68.0391 7.02734 67.5156 7.41797C66.9922 7.80859 66.7305 8.28125 66.7305 8.83594H64.5508C64.5508 8.20312 64.7734 7.59375 65.2188 7.00781C65.6719 6.41406 66.2812 5.94531 67.0469 5.60156C67.8203 5.25781 68.668 5.08594 69.5898 5.08594C71.0508 5.08594 72.1953 5.45312 73.0234 6.1875C73.8516 6.91406 74.2812 7.91797 74.3125 9.19922V15.0352C74.3125 16.1992 74.4609 17.125 74.7578 17.8125V18H72.4844ZM68.8867 16.3477C69.5664 16.3477 70.2109 16.1719 70.8203 15.8203C71.4297 15.4688 71.8711 15.0117 72.1445 14.4492V11.8477H70.4453C67.7891 11.8477 66.4609 12.625 66.4609 14.1797C66.4609 14.8594 66.6875 15.3906 67.1406 15.7734C67.5938 16.1562 68.1758 16.3477 68.8867 16.3477ZM87.4023 5.32031V18H85.2227V13.0664H81.9531L78.9648 18H76.6211L79.8086 12.7383C78.9961 12.4414 78.3711 11.9844 77.9336 11.3672C77.5039 10.7422 77.2891 10.0156 77.2891 9.1875C77.2891 8.03125 77.7227 7.10156 78.5898 6.39844C79.457 5.6875 80.6172 5.32812 82.0703 5.32031H87.4023ZM79.4688 9.21094C79.4688 9.82812 79.6797 10.3281 80.1016 10.7109C80.5234 11.0859 81.082 11.2773 81.7773 11.2852H85.2227V7.07812H82.1055C81.3008 7.07812 80.6602 7.27734 80.1836 7.67578C79.707 8.06641 79.4688 8.57812 79.4688 9.21094Z" fill="black"/>
</svg>
