<svg width="107" height="19" viewBox="0 0 107 19" fill="none" xmlns="http://www.w3.org/2000/svg">
<path d="M4.41016 10.3359H2.33594V18H0.0859375V0.9375H2.33594V8.46094H4.09375L10.0586 0.9375H12.8594L6.34375 9.21094L13.3398 18H10.5859L4.41016 10.3359ZM14.1602 11.543C14.1602 10.3008 14.4023 9.18359 14.8867 8.19141C15.3789 7.19922 16.0586 6.43359 16.9258 5.89453C17.8008 5.35547 18.7969 5.08594 19.9141 5.08594C21.6406 5.08594 23.0352 5.68359 24.0977 6.87891C25.168 8.07422 25.7031 9.66406 25.7031 11.6484V11.8008C25.7031 13.0352 25.4648 14.1445 24.9883 15.1289C24.5195 16.1055 23.8438 16.8672 22.9609 17.4141C22.0859 17.9609 21.0781 18.2344 19.9375 18.2344C18.2188 18.2344 16.8242 17.6367 15.7539 16.4414C14.6914 15.2461 14.1602 13.6641 14.1602 11.6953V11.543ZM16.3398 11.8008C16.3398 13.207 16.6641 14.3359 17.3125 15.1875C17.9688 16.0391 18.8438 16.4648 19.9375 16.4648C21.0391 16.4648 21.9141 16.0352 22.5625 15.1758C23.2109 14.3086 23.5352 13.0977 23.5352 11.543C23.5352 10.1523 23.2031 9.02734 22.5391 8.16797C21.8828 7.30078 21.0078 6.86719 19.9141 6.86719C18.8438 6.86719 17.9805 7.29297 17.3242 8.14453C16.668 8.99609 16.3398 10.2148 16.3398 11.8008ZM38.7812 18H36.6133V12.5859H30.7891V18H28.6094V5.32031H30.7891V10.8164H36.6133V5.32031H38.7812V18ZM51.6953 7.07812H47.4414V18H45.2734V7.07812H41.1016V5.32031H51.6953V7.07812ZM61.4453 18C61.3203 17.75 61.2188 17.3047 61.1406 16.6641C60.1328 17.7109 58.9297 18.2344 57.5312 18.2344C56.2812 18.2344 55.2539 17.8828 54.4492 17.1797C53.6523 16.4688 53.2539 15.5703 53.2539 14.4844C53.2539 13.1641 53.7539 12.1406 54.7539 11.4141C55.7617 10.6797 57.1758 10.3125 58.9961 10.3125H61.1055V9.31641C61.1055 8.55859 60.8789 7.95703 60.4258 7.51172C59.9727 7.05859 59.3047 6.83203 58.4219 6.83203C57.6484 6.83203 57 7.02734 56.4766 7.41797C55.9531 7.80859 55.6914 8.28125 55.6914 8.83594H53.5117C53.5117 8.20312 53.7344 7.59375 54.1797 7.00781C54.6328 6.41406 55.2422 5.94531 56.0078 5.60156C56.7812 5.25781 57.6289 5.08594 58.5508 5.08594C60.0117 5.08594 61.1562 5.45312 61.9844 6.1875C62.8125 6.91406 63.2422 7.91797 63.2734 9.19922V15.0352C63.2734 16.1992 63.4219 17.125 63.7188 17.8125V18H61.4453ZM57.8477 16.3477C58.5273 16.3477 59.1719 16.1719 59.7812 15.8203C60.3906 15.4688 60.832 15.0117 61.1055 14.4492V11.8477H59.4062C56.75 11.8477 55.4219 12.625 55.4219 14.1797C55.4219 14.8594 55.6484 15.3906 56.1016 15.7734C56.5547 16.1562 57.1367 16.3477 57.8477 16.3477ZM70.6211 12.5977H69.0391V18H66.8594V5.32031H69.0391V10.6875H70.457L74.7227 5.32031H77.3477L72.332 11.4141L77.7695 18H75.0156L70.6211 12.5977ZM89.0547 7.07812H84.8008V18H82.6328V7.07812H78.4609V5.32031H89.0547V7.07812ZM93.5312 9.69141H96.8242C98.2617 9.70703 99.3984 10.082 100.234 10.8164C101.07 11.5508 101.488 12.5469 101.488 13.8047C101.488 15.0703 101.059 16.0859 100.199 16.8516C99.3398 17.6172 98.1836 18 96.7305 18H91.3633V5.32031H93.5312V9.69141ZM106.012 18H103.832V5.32031H106.012V18ZM93.5312 11.4609V16.2305H96.7539C97.5664 16.2305 98.1953 16.0234 98.6406 15.6094C99.0859 15.1875 99.3086 14.6133 99.3086 13.8867C99.3086 13.1836 99.0898 12.6094 98.6523 12.1641C98.2227 11.7109 97.6172 11.4766 96.8359 11.4609H93.5312Z" fill="black"/>
</svg>
