<svg width="148" height="37" viewBox="0 0 148 37" fill="none" xmlns="http://www.w3.org/2000/svg">
<path d="M30.55 36H26.05V4.25H14.75C14.45 6.71666 14.1167 9.31666 13.75 12.05C13.3833 14.75 13.0167 17.3333 12.65 19.8C12.2833 22.2667 11.9167 24.3667 11.55 26.1C11.1167 28.3333 10.5833 30.2333 9.95 31.8C9.31667 33.3667 8.46667 34.55 7.4 35.35C6.36667 36.15 5 36.55 3.3 36.55C2.73333 36.55 2.15 36.4833 1.55 36.35C0.983333 36.25 0.483333 36.1167 0.05 35.95V32.2C0.416667 32.3667 0.833333 32.5167 1.3 32.65C1.76667 32.75 2.26667 32.8 2.8 32.8C3.8 32.8 4.58333 32.4 5.15 31.6C5.75 30.7667 6.21667 29.75 6.55 28.55C6.88333 27.3167 7.16667 26.1 7.4 24.9C7.66667 23.6333 7.98333 21.7833 8.35 19.35C8.75 16.8833 9.16667 14.0167 9.6 10.75C10.0667 7.48333 10.5333 4 11 0.299998H30.55V36ZM62.9504 22.55C62.9504 26.9833 61.8171 30.4167 59.5504 32.85C57.3171 35.2833 54.2837 36.5 50.4504 36.5C48.0837 36.5 45.9671 35.9667 44.1004 34.9C42.2671 33.8 40.8171 32.2167 39.7504 30.15C38.6837 28.05 38.1504 25.5167 38.1504 22.55C38.1504 18.1167 39.2671 14.7 41.5004 12.3C43.7337 9.9 46.7671 8.7 50.6004 8.7C53.0337 8.7 55.1671 9.25 57.0004 10.35C58.8671 11.4167 60.3171 12.9833 61.3504 15.05C62.4171 17.0833 62.9504 19.5833 62.9504 22.55ZM42.7004 22.55C42.7004 25.7167 43.3171 28.2333 44.5504 30.1C45.8171 31.9333 47.8171 32.85 50.5504 32.85C53.2504 32.85 55.2337 31.9333 56.5004 30.1C57.7671 28.2333 58.4004 25.7167 58.4004 22.55C58.4004 19.3833 57.7671 16.9 56.5004 15.1C55.2337 13.3 53.2337 12.4 50.5004 12.4C47.7671 12.4 45.7837 13.3 44.5504 15.1C43.3171 16.9 42.7004 19.3833 42.7004 22.55ZM86.2738 9.2V12.9H74.3238V36H69.9238V9.2H86.2738ZM95.7047 25.55C95.7047 25.95 95.688 26.55 95.6547 27.35C95.6214 28.15 95.5714 28.95 95.5047 29.75C95.4714 30.55 95.438 31.1833 95.4047 31.65L109.755 9.2H115.155V36H111.055V20.2C111.055 19.6667 111.055 18.9667 111.055 18.1C111.088 17.2333 111.121 16.3833 111.155 15.55C111.188 14.6833 111.221 14.0333 111.255 13.6L97.0047 36H91.5547V9.2H95.7047V25.55ZM128.084 9.2V20.35H142.634V9.2H147.034V36H142.634V24.05H128.084V36H123.684V9.2H128.084Z" fill="black"/>
</svg>
